<svg version="1.0" xmlns="http://www.w3.org/2000/svg" viewBox="1000 0 12000 4570">
  <g fill="#41b5ac">
    <path d="M4527 3173c-4-3-7-82-7-174 0-145 2-168 16-173 9-4 22-2 29 4s23 6 44 0c97-28 184 65 152 163-20 59-54 82-122 82h-59v41c0 50-29 82-53 57zm157-164c48-38 20-129-41-129s-86 90-37 129c15 12 32 21 39 21s24-9 39-21zM8547 3173c-4-3-7-82-7-174 0-145 2-168 16-173 9-4 22-2 29 4s23 6 45 0c43-12 78-4 113 28 57 54 57 140 1 193-21 20-36 24-85 24h-59v41c0 50-29 82-53 57zm158-168c15-14 25-36 25-51 0-34-36-74-67-74-61 0-86 90-37 129 34 27 50 26 79-4zM1668 3092l-418-2V1400h1700v1690l-432 2c-238 2-621 2-850 0zm162-243c-85-83-230-223-322-311l-168-160v622l323-1h322l-155-150zm950 148c0-3-265-268-283-284-2-1-68 63-147 142l-145 145h288c158 0 287-2 287-3zm-362-340c9-10-26-51-153-177l-165-165-168 168-167 169 164 158 164 159 157-149c87-83 162-156 168-163zm430-753l-3-334-338 338-338 338 338 337 338 336 3-340c1-187 1-491 0-675zm-1165 448l107-107-115-115-115-115 60-60 60-60-170-170-170-170v345l-1 345 113 107c62 59 115 107 118 108 3 0 54-48 113-108zm767-517l345-345H1405l345 345c190 190 347 345 350 345s160-155 350-345zM3585 3064c-70-38-105-96-105-171 0-98 89-183 191-183 39 0 108 29 118 49 20 39-14 53-65 26-81-42-184 18-184 107 0 105 95 154 208 107 28-12 34-12 42 1 13 20 9 30-23 54-37 27-140 33-182 10zM3928 3064c-61-33-79-138-32-193 36-43 89-58 137-38 94 40 103 185 15 233-31 18-87 17-120-2zm112-60c23-22 18-83-9-105-31-26-57-24-86 6-67 66 26 164 95 99zM4248 3064c-89-48-71-199 27-233 35-12 45-11 77 2 68 29 98 119 63 187-28 55-109 76-167 44zm109-56c21-17 26-67 9-93-47-72-147-12-116 70 16 41 70 53 107 23zM4885 3047c-57-57-59-132-5-185 72-73 199-30 203 69l2 34-92 3c-51 1-93 7-93 12 0 17 55 51 75 47 88-21 85-21 85 1 0 28-47 52-101 52-33 0-47-6-74-33zm146-136c-6-10-25-24-43-30-27-10-36-9-57 7-46 34-38 42 39 42 66 0 70-1 61-19zM5177 3073c-4-3-7-57-7-118 0-85 3-115 14-124s17-9 27 2c11 11 19 11 53 0 34-12 41-12 54 1 19 19 8 46-18 46-12 0-32 12-45 26-21 22-25 37-25 85 0 31-3 64-6 73-6 16-35 22-47 9zM5409 3057c-67-45-72-148-9-200 37-31 78-41 114-27 21 8 32 7 42-1 11-9 18-8 29 1 13 11 15 35 13 129-3 112-4 116-25 119-13 2-23-2-23-8 0-7-6-8-19 0-33 17-86 11-122-13zm114-55c24-21 22-77-3-102-28-28-64-25-89 6-33 42-23 97 22 113 25 9 44 5 70-17zM5736 3065c-12-13-16-36-16-101 0-76-2-84-19-84-10 0-22-7-25-16-7-19 10-44 30-44 8 0 14-16 16-47 3-40 6-48 23-48s20 8 23 46c2 37 7 48 23 52 26 7 25 47-1 54-18 5-20 14-20 74 0 52 4 70 16 77 22 12 14 46-12 50-12 2-29-4-38-13zM5906 3058c-3-13-6-64-6-115 0-96 13-129 46-116 12 4 14 26 12 127-3 115-4 121-24 124-15 2-23-4-28-20zM6075 2966c-26-63-44-119-40-125 3-6 14-11 24-11 13 0 26 20 46 68 15 37 31 70 35 75 3 4 20-25 36-65 23-55 35-73 50-73 31 0 27 33-19 140-60 141-70 140-132-9zM6379 3066c-38-22-62-64-63-112-1-52 25-91 78-118 32-16 44-17 76-7 51 15 92 64 88 105l-3 31-88 3c-77 2-88 5-85 20 2 9 16 23 32 31 24 11 35 11 68 0 30-9 41-10 50-1s7 17-9 33c-27 28-107 36-144 15zm131-144c0-19-42-45-70-45s-70 26-70 45c0 4 32 8 70 8 39 0 70-4 70-8zM6825 3047c-19-19-37-46-41-60-23-95 64-183 155-157l31 9v-48c0-52 18-78 45-67 13 5 15 30 13 178-3 171-3 173-25 176-13 2-23-2-23-8 0-7-6-8-19 0-11 5-38 10-61 10-34 0-48-6-75-33zm127-44c41-37 9-123-45-123-55 0-88 80-50 122 20 22 70 23 95 1zM7270 3058c-40-27-64-86-55-130 9-41 50-85 90-98 70-23 147 27 149 97l1 38-93 3c-89 3-92 3-82 23 17 31 58 43 103 28 29-10 40-10 49-1 21 21-23 54-79 59-39 4-55 0-83-19zm140-136c0-19-42-45-70-45s-70 26-70 45c0 4 32 8 70 8 39 0 70-4 70-8zM7546 3065c-3-9-6-63-6-120 0-80 3-105 15-115 11-9 19-10 26-3s21 7 43 1c26-8 41-7 69 7 51 24 69 67 65 162-3 67-6 78-22 81-28 6-36-15-36-100 0-66-3-79-19-88-56-29-75-7-81 97-5 80-7 88-26 91-13 2-24-4-28-13zM7886 3058c-11-16-16-45-16-99 0-68-2-77-20-82-11-3-20-12-20-21s9-21 20-28c14-9 20-24 20-49 0-39 21-65 45-55 10 4 15 19 15 50 0 36 4 46 20 51 11 4 20 15 20 27 0 11-8 22-20 25-18 5-20 14-20 74 0 52 4 70 16 77 25 14 13 46-18 50-18 2-31-4-42-20zM8037 3074c-4-4-7-60-7-125 0-94 3-118 15-123 8-3 20 1 27 8 10 11 18 11 46-1 19-8 41-12 49-9 23 9 11 49-16 56-41 9-65 54-71 128-4 50-9 68-20 70-9 1-19 0-23-4zM8249 3041c-34-33-39-45-39-83 0-117 130-177 210-97 29 29 47 80 35 99-3 6-45 10-96 10-49 0-89 4-89 9 0 18 54 52 75 48 88-21 85-21 85 1 0 28-47 52-101 52-35 0-48-6-80-39zm152-130c-15-27-67-44-94-29-22 11-37 27-37 41 0 4 32 7 70 7 66 0 70-1 61-19zM8887 3074c-4-4-7-60-7-125 0-94 3-118 15-123 8-3 20 1 27 8 10 10 19 10 51-3 37-14 40-14 53 4 16 22 4 42-28 47-37 5-63 53-68 126-4 50-9 68-20 70-9 1-19 0-23-4zM9099 3041c-33-33-39-45-39-82 0-119 128-179 210-98 29 29 47 80 35 99-3 6-45 10-96 10-49 0-89 4-89 9 0 18 54 52 75 48 88-21 85-21 85 1 0 28-47 52-101 52-35 0-48-6-80-39zm152-130c-15-27-67-44-94-29-22 11-37 27-37 41 0 4 32 7 70 7 66 0 70-1 61-19zM9397 3073c-4-3-7-59-7-124 0-100 2-118 17-123 9-4 21-2 26 3 6 6 20 6 37 0 20-8 37-6 63 5 57 23 68 50 65 152-3 81-5 89-23 89s-20-8-23-80c-3-86-18-115-57-115-36 0-45 20-45 100 0 74-9 100-35 100-7 0-15-3-18-7zM9748 3064c-57-31-80-130-41-182 11-15 36-35 57-46 32-16 44-17 76-7 50 15 90 62 90 107v34h-91c-81 0-90 2-87 17 2 10 16 24 32 32 23 11 35 11 66 1 62-20 84 11 31 43-35 21-96 21-133 1zm132-142c0-12-30-37-53-45-24-9-64 8-77 33-10 19-8 20 60 20 38 0 70-4 70-8zM10045 3047c-35-35-35-36-35-120 0-65 4-88 16-98 28-23 44 14 44 98 0 66 2 74 25 89s27 15 50 0 25-22 25-95c0-60 4-82 16-92 25-21 44 14 44 80 0 115-28 160-104 168-42 5-48 3-81-30zM10337 3073c-4-3-7-57-7-118 0-85 3-115 14-124s17-9 27 2c11 11 19 11 53 0 34-12 41-12 54 1 19 19 8 46-18 46-12 0-32 12-45 26-21 22-25 37-25 85 0 31-3 64-6 73-6 16-35 22-47 9zM10573 3064c-24-12-33-23-33-40 0-28 14-30 64-9 27 12 42 13 56 5 32-17 23-28-35-46-37-10-61-24-72-41-50-75 86-147 156-82 28 26 17 53-18 44-88-23-123 4-38 29 60 17 72 28 82 68 6 22 1 33-23 58-35 35-86 40-139 14zM7125 2860c-4-6 4-19 17-29 20-17 21-21 9-44-16-31-11-61 12-65 53-10 65 72 18 119-31 31-46 36-56 19zM4920 2779c0-26 35-69 57-69 35 0 38 19 7 51-28 29-64 39-64 18zM5911 2772c-7-14-7-24 3-37 19-27 48-12 44 22-4 33-32 42-47 15zM3755 2491c-123-36-258-121-282-179-28-67 23-142 96-142 26 0 56 12 102 42 119 77 204 98 300 73 102-26 151-76 135-138-9-36-89-73-232-107-206-49-293-100-349-201-58-106-30-247 67-334 55-50 153-94 237-107 104-15 192 3 313 65 115 58 138 82 138 142 0 95-98 137-183 79-137-93-273-99-359-17-34 32-36 63-5 90 32 30 76 46 210 77 217 51 338 133 373 254 52 176-70 352-281 407-77 20-205 18-280-4zM4841 2494c-85-23-150-63-226-139-116-116-166-235-166-400 0-224 112-411 302-504 159-78 303-78 459 0 134 67 246 208 284 355 20 77 20 221 1 294-48 181-194 338-362 390-78 24-211 26-292 4zm232-230c64-22 140-92 174-162 24-50 28-69 28-147 0-76-4-99-26-146-53-112-149-179-257-181-105-1-195 45-250 128-98 147-78 334 49 448 81 73 182 94 282 60zM5782 2494c-52-36-52-39-52-524 0-391 2-456 16-485 15-33 65-65 99-65s84 32 99 65c14 28 16 88 16 419v386h204c189 0 205 1 229 20 36 29 52 81 37 125-6 19-23 44-37 55-24 19-40 20-307 20-239 0-285-2-304-16zM6811 2494c-76-20-132-47-210-98-90-60-111-109-76-176 32-62 104-68 177-17 26 19 75 47 110 62 114 52 252 34 318-41 35-41 37-62 10-97-25-32-95-58-237-90s-231-76-292-143c-57-62-76-119-68-202 9-107 79-198 191-252 160-76 337-58 504 50 98 63 118 138 51 194-43 36-92 35-155-6-100-64-195-84-275-56-78 26-120 78-98 120 15 28 101 65 205 88 177 38 262 78 332 154 55 60 74 107 75 186 0 149-117 278-296 326-67 18-197 17-266-2zM7801 2496c-50-27-50-34-51-453v-391l-124-4c-116-3-126-5-150-27-50-47-51-121-1-171l25-25h719l30 29c39 37 48 83 27 128-27 57-58 68-190 68h-116v798l-31 31c-24 25-39 31-72 31-23-1-53-7-66-14zM8510 2482c-19-19-30-44-35-73-3-24-5-238-3-474 3-391 5-433 21-458 41-63 124-71 179-17l28 28v471c0 343-3 477-12 496-27 60-129 75-178 27zM9291 2494c-164-44-298-156-370-307-174-369 103-791 519-791 200 0 400 104 400 208 0 92-113 151-183 96-100-79-246-96-360-43-76 36-127 84-164 156-24 45-28 64-28 137 0 66 5 96 22 132 88 191 325 255 510 138 61-39 119-41 162-4 32 27 48 76 37 118-14 56-151 142-264 165-73 15-216 13-281-5zM10087 2490c-15-12-31-38-37-58-6-23-10-204-10-470 0-462 1-474 50-517 21-19 38-20 291-23 235-3 273-1 304 14 60 28 81 94 50 154-28 54-54 60-270 60h-195v200h160c173 0 214 9 244 51 9 13 16 43 16 67 0 37-6 50-34 78l-34 34h-352v210h410l32 29c29 26 33 35 33 81s-4 55-33 81l-32 29h-284c-270 0-284-1-309-20z"/>
  </g>
  <path d="M1627 2522l-57-57 110-110 110-110-115-115-115-115 60-60 60-60 175 175 175 175-167 167c-92 93-170 168-173 168s-31-26-63-58z" fill="#fd3e52"/>
</svg>
